Coordinates
version=1
nRows=9
nColumns=42
inDegrees=yes

Units are S.I. units (second, meters, Newtons, ...)
If the header above contains a line with 'inDegrees', this indicates whether rotational values are in degrees (yes) or radians (no).

endheader
time	pelvis_tilt	pelvis_list	pelvis_rotation	pelvis_tx	pelvis_ty	pelvis_tz	hip_flexion_r	hip_adduction_r	hip_rotation_r	knee_angle_r	knee_adduction_r	knee_angle_r_beta	ankle_angle_r	subtalar_angle_r	mtp_angle_r	hip_flexion_l	hip_adduction_l	hip_rotation_l	knee_angle_l	knee_adduction_l	knee_angle_l_beta	ankle_angle_l	subtalar_angle_l	mtp_angle_l	lumbar_extension	lumbar_bending	lumbar_rotation	arm_flex_r	arm_add_r	arm_rot_r	elbow_flex_r	pro_sup_r	wrist_flex_r	wrist_dev_r	arm_flex_l	arm_add_l	arm_rot_l	elbow_flex_l	pro_sup_l	wrist_flex_l	wrist_dev_l
      0.75000000	     19.62292817	      0.17430150	      0.54716969	     -1.20449553	      0.88461931	     -0.00594481	    -26.87147273	      3.23971295	    -16.82365987	     21.45159107	     -2.20641077	      0.37440089	     30.23779998	     12.55254135	     -8.15509404	      7.98622336	     -1.01554408	      4.79934206	     10.78784491	      2.40046710	      0.18828341	      4.05941613	    -11.33871005	     -8.15509404	    -41.12809581	     -1.07419491	      1.44865979	     22.49796152	    -10.05276753	     -1.50222610	     40.41378631	     90.00000001	      0.00000000	      0.00000000	      5.38118181	     -3.61387630	    -34.09498247	     36.00135224	     90.00000001	      0.00000000	      0.00000000
      0.76000000	     19.57050546	      0.15860663	      0.50106108	     -1.19472417	      0.88318263	     -0.00717655	    -27.44978811	      3.03040814	    -17.22279093	     21.66464848	     -2.19467016	      0.37811945	     30.22301656	     13.06668851	     -8.11111492	      8.12940857	     -0.84253948	      5.27441874	     11.45234850	      2.53006273	      0.19988119	      3.08650068	    -13.53627651	     -8.11111492	    -40.88973631	     -1.05557505	      1.43213398	     22.46746502	    -10.05872928	     -1.25710849	     40.49618882	     90.00000001	      0.00000000	      0.00000000	      5.19134100	     -3.45882428	    -34.58332671	     35.82539575	     90.00000001	      0.00000000	      0.00000000
      0.77000000	     19.67353193	      0.14726476	      0.37277142	     -1.18476242	      0.88207260	     -0.00827689	    -28.19737785	      2.79742248	    -17.37903997	     21.90713047	     -2.17693871	      0.38235156	     30.13717455	     13.11333065	     -8.10709135	      8.03044543	     -0.74410715	      5.43233731	     12.20434007	      2.77811237	      0.21300592	      3.06483776	    -13.89877023	     -8.10709135	    -40.80923856	     -1.09727863	      1.53454851	     22.41585549	    -10.04889479	     -1.28973637	     40.49479352	     90.00000001	      0.00000000	      0.00000000	      4.97534655	     -3.37681916	    -34.63007963	     35.68074965	     90.00000001	      0.00000000	      0.00000000
      0.78000000	     19.50984812	      0.09979173	      0.33721379	     -1.17462697	      0.88046941	     -0.00959979	    -28.57402670	      2.59091177	    -17.81549123	     22.33931414	     -2.22491252	      0.38989458	     29.95698983	     13.42834878	     -8.09464415	      8.52634671	     -0.63253434	      5.24892268	     13.72270867	      2.96615924	      0.23950645	      2.91407374	    -14.65866244	     -8.09464415	    -40.42261445	     -1.05346617	      1.57069514	     22.24633636	    -10.00156535	     -1.38815083	     40.55012669	     90.00000001	      0.00000000	      0.00000000	      4.73101537	     -3.24620606	    -34.76457804	     35.49793657	     90.00000001	      0.00000000	      0.00000000
      0.79000000	     19.43507581	      0.06334155	      0.12789802	     -1.16446099	      0.87924604	     -0.01060454	    -29.01150851	      2.37330295	    -17.83092695	     22.77387361	     -2.36435497	      0.39747908	     29.83974944	     13.50518379	     -8.09148418	      8.47585408	     -0.56691314	      5.67735857	     14.46475194	      3.27379894	      0.25245755	      2.79940195	    -14.64135988	     -8.09148418	    -40.14237352	     -1.14093390	      1.77152590	     22.06098123	     -9.98041305	     -1.42186493	     40.49590019	     90.00000001	      0.00000000	      0.00000000	      4.50130457	     -3.14813293	    -34.80835258	     35.39152253	     90.00000001	      0.00000000	      0.00000000
      0.80000000	     19.15099566	      0.02037278	      0.22874509	     -1.15413753	      0.87747351	     -0.01229671	    -29.09529414	      2.09739822	    -18.62217747	     23.60497495	     -2.41520807	      0.41198453	     29.57214806	     14.03170672	     -8.08184801	      9.24607649	     -0.47117163	      5.59095774	     16.48032973	      3.62789750	      0.28763602	      2.54783324	    -15.44012255	     -8.08184801	    -39.60998246	     -1.01852290	      1.73890900	     21.78333483	     -9.93952341	     -1.70287380	     40.52498214	     90.00000001	      0.00000000	      0.00000000	      4.30462067	     -3.02261531	    -35.02736108	     35.09820087	     90.00000001	      0.00000000	      0.00000000
      0.81000000	     18.90145265	     -0.01064489	      0.19103051	     -1.14361474	      0.87596365	     -0.01362628	    -29.22628547	      1.87582779	    -19.18682912	     24.30574784	     -2.70532005	      0.42421533	     29.43872594	     14.79828281	     -8.06908470	      9.71544404	     -0.36255111	      5.70392527	     18.06876493	      3.90490630	      0.31535944	      2.34802673	    -15.64581565	     -8.06908470	    -39.09998022	     -1.02687447	      1.84230016	     21.42771612	     -9.86428545	     -2.02657930	     40.47791913	     90.00000001	      0.00000000	      0.00000000	      4.10503214	     -2.92261688	    -35.27619559	     34.89006070	     90.00000001	      0.00000000	      0.00000000
      0.82000000	     18.72943089	      0.04012725	      0.06348777	     -1.13324863	      0.87485666	     -0.01503321	    -29.38963630	      1.50248046	    -19.23609198	     25.11953311	     -2.83418190	      0.43841856	     29.10218282	     15.01025363	     -8.06554118	      9.84597997	     -0.22272137	      6.28096569	     19.15144769	      4.43052190	      0.33425582	      2.12492980	    -15.60790175	     -8.06554118	    -38.72391720	     -1.14889982	      1.99866826	     21.07930267	     -9.89132929	     -2.17863480	     40.36972986	     90.00000001	      0.00000000	      0.00000000	      3.94841742	     -2.79833015	    -35.34476345	     34.75845777	     90.00000001	      0.00000000	      0.00000000
      0.83000000	     18.45886940	      0.07575127	      0.12163484	     -1.12251360	      0.87351695	     -0.01677406	    -29.42214893	      1.07929978	    -19.79950411	     26.10784543	     -2.85132678	      0.45566786	     28.49339327	     15.36478547	     -8.05891945	     10.39210358	     -0.02785176	      6.43357540	     20.92464450	      4.77401263	      0.36520394	      1.92881672	    -15.87172241	     -8.05891945	    -38.17687389	     -1.14301207	      1.97965694	     20.61160121	     -9.80495672	     -2.58164590	     40.36337426	     90.00000001	      0.00000000	      0.00000000	      3.73370653	     -2.69676997	    -35.48619266	     34.51286345	     90.00000001	      0.00000000	      0.00000000
